<svg xmlns="http://www.w3.org/2000/svg" width="20" height="21" fill="none"><path fill="#8D8D8D" fill-rule="evenodd" d="M4.167 9.723c0-2.734 2.242-4.957 5-4.957 2.757 0 5 2.223 5 4.957s-2.243 4.958-5 4.958c-2.758 0-5-2.223-5-4.958Zm13.089 6.853-2.83-2.806a6.535 6.535 0 0 0 1.407-4.047c0-3.644-2.99-6.61-6.666-6.61S2.5 6.08 2.5 9.723c0 3.645 2.99 6.61 6.667 6.61a6.663 6.663 0 0 0 4.08-1.394l2.83 2.805a.835.835 0 0 0 1.179 0 .82.82 0 0 0 0-1.168Z" clip-rule="evenodd"/><mask id="a" width="16" height="15" x="2" y="3" maskUnits="userSpaceOnUse" style="mask-type:luminance"><path fill="#fff" fill-rule="evenodd" d="M4.167 9.723c0-2.734 2.242-4.957 5-4.957 2.757 0 5 2.223 5 4.957s-2.243 4.958-5 4.958c-2.758 0-5-2.223-5-4.958Zm13.089 6.853-2.83-2.806a6.535 6.535 0 0 0 1.407-4.047c0-3.644-2.99-6.61-6.666-6.61S2.5 6.08 2.5 9.723c0 3.645 2.99 6.61 6.667 6.61a6.663 6.663 0 0 0 4.08-1.394l2.83 2.805a.835.835 0 0 0 1.179 0 .82.82 0 0 0 0-1.168Z" clip-rule="evenodd"/></mask><g mask="url(#a)"><path fill="#8D8D8D" d="M0 .635h20v19.83H0z"/></g></svg>